<?xml version="1.0" encoding="UTF-8" standalone="no"?>
<svg
   xmlns:dc="http://purl.org/dc/elements/1.1/"
   xmlns:cc="http://creativecommons.org/ns#"
   xmlns:rdf="http://www.w3.org/1999/02/22-rdf-syntax-ns#"
   xmlns:svg="http://www.w3.org/2000/svg"
   xmlns="http://www.w3.org/2000/svg"
   xmlns:sodipodi="http://sodipodi.sourceforge.net/DTD/sodipodi-0.dtd"
   xmlns:inkscape="http://www.inkscape.org/namespaces/inkscape"
   inkscape:export-ydpi="86.6987"
   inkscape:export-xdpi="86.6987"
   inkscape:export-filename="/Users/jonahmajumder/Code/Python/canvas/icons/aplus.png"
   inkscape:version="1.0beta2 (2b71d25, 2019-12-03)"
   sodipodi:docname="aplus.svg"
   id="svg1061"
   version="1.1"
   viewBox="0 0 135.46719 135.46677"
   height="135.46677mm"
   width="135.46719mm">
  <defs
     id="defs1055" />
  <sodipodi:namedview
     inkscape:window-maximized="1"
     inkscape:window-y="23"
     inkscape:window-x="0"
     inkscape:window-height="1035"
     inkscape:window-width="1920"
     fit-margin-bottom="0"
     fit-margin-right="0"
     fit-margin-left="0"
     fit-margin-top="0"
     showgrid="false"
     inkscape:document-rotation="0"
     inkscape:current-layer="layer1"
     inkscape:document-units="mm"
     inkscape:cy="252.62308"
     inkscape:cx="285.97339"
     inkscape:zoom="1.1711603"
     inkscape:pageshadow="2"
     inkscape:pageopacity="0.0"
     borderopacity="1.0"
     bordercolor="#666666"
     pagecolor="#ffffff"
     id="base" />
  <metadata
     id="metadata1058">
    <rdf:RDF>
      <cc:Work
         rdf:about="">
        <dc:format>image/svg+xml</dc:format>
        <dc:type
           rdf:resource="http://purl.org/dc/dcmitype/StillImage" />
        <dc:title></dc:title>
      </cc:Work>
    </rdf:RDF>
  </metadata>
  <g
     transform="translate(-56.932373,-99.269013)"
     id="layer1"
     inkscape:groupmode="layer"
     inkscape:label="layer 1">
    <path
       inkscape:connector-curvature="0"
       d="m 124.58986,99.269024 a 67.73334,67.73334 0 0 0 -67.657487,67.733326 67.73334,67.73334 0 0 0 67.733337,67.73334 67.73334,67.73334 0 0 0 67.73333,-67.73334 67.73334,67.73334 0 0 0 -67.73333,-67.733326 67.73334,67.73334 0 0 0 -0.0759,0 z m -16.20779,21.811066 h 17.33374 17.33374 l 2.08021,1.16005 c 1.23886,0.69076 2.6877,2.0648 3.58246,3.39784 l 1.50224,2.23838 v 6.86975 6.87035 l 6.81743,0.02 c 6.21199,0.0182 6.97982,0.11262 8.63542,1.06186 2.47546,1.41942 4.45818,3.99274 4.92184,6.38764 0.52049,2.68759 0.51055,31.98868 -0.0118,34.23473 -0.54478,2.34425 -2.61668,4.8445 -5.10293,6.15714 h -0.001 c -2.35618,1.24396 -5.89456,1.44592 -6.31178,0.36042 -0.14645,-0.38263 -0.14431,-1.36892 0.005,-2.19192 0.66502,-3.6641 -1.52343,-15.09592 -3.70122,-19.33516 -0.37949,-0.7387 -0.64432,-2.84518 -0.66793,-5.30696 -0.11552,-12.09142 -3.86065,-21.33865 -10.87261,-26.84697 -2.09035,-1.64209 -3.46005,-2.3799 -8.17798,-4.40679 -3.06098,-1.31441 -11.87604,-1.92396 -19.00708,-1.31292 -3.44936,0.29558 -7.40905,0.86721 -8.79886,1.27059 -1.38981,0.40338 -3.41913,0.66945 -4.50968,0.5909 -1.80587,-0.13006 -1.99652,-0.26257 -2.13607,-1.48401 -0.17502,-1.53193 1.0275,-4.60198 2.43417,-6.2136 0.52497,-0.60146 1.78649,-1.63955 2.80341,-2.30716 z m 15.14358,17.28082 c 5.9447,0.003 7.07004,0.15214 9.37801,1.01835 5.12303,1.9228 7.78617,4.08933 9.69845,7.89047 1.43705,2.85645 1.61671,6.80684 0.30927,6.80684 -0.4576,0 -1.02966,-0.16615 -1.27118,-0.36924 -1.91996,-1.61453 -11.64507,-3.78774 -16.90922,-3.77825 -3.48175,0.006 -10.26234,1.24586 -13.57548,2.4818 -5.78642,2.15858 -10.82301,6.18256 -13.318543,10.64036 -2.42882,4.33861 -3.092,7.20827 -3.07093,13.29384 0.0172,4.97047 0.17946,6.12349 1.34467,9.57086 0.72865,2.15582 1.22717,4.0772 1.10831,4.2692 -0.42904,0.6931 -9.100605,0.35075 -10.561577,-0.41686 -2.173852,-1.14215 -3.929834,-2.97517 -5.012974,-5.23346 -0.962121,-2.00598 -0.996008,-2.63467 -0.996008,-18.45969 0,-17.94721 0.04391,-18.27045 2.912768,-21.3407 2.508379,-2.68447 4.100389,-3.11797 11.445291,-3.11797 4.77321,0 7.159623,-0.19054 8.288513,-0.66146 0.8719,-0.36371 2.58152,-0.80286 3.79883,-0.97602 1.21731,-0.17316 3.35673,-0.60446 4.75427,-0.95837 1.66667,-0.42211 5.25271,-0.64905 10.42282,-0.65852 0.44093,-9.1e-4 0.8584,-0.002 1.25471,-0.001 z m 1.20297,18.93946 c 7.27624,0.002 14.42954,3.52927 18.76484,9.662 1.81238,2.56459 1.81888,2.5898 1.80622,6.95795 -0.019,6.18439 -1.2456,9.41993 -5.00415,13.19918 -2.80463,2.8201 -5.46694,4.3478 -10.25055,5.88316 -3.67255,1.17874 -12.19223,1.00039 -15.05832,-0.31515 -5.46068,-2.50646 -8.70798,-7.17371 -9.63083,-13.84358 -1.43184,-10.34848 2.9723,-17.4486 12.73352,-20.52932 2.17316,-0.68586 4.41186,-1.01509 6.63927,-1.01424 z m 24.73913,33.79141 h 6e-4 c 0.79688,0.0179 0.76832,1.94042 0.66264,7.01558 l -0.14758,7.11141 -1.40993,1.77212 c -0.77543,0.97447 -2.52892,2.34293 -3.89643,3.04094 l -2.4865,1.26883 -16.4418,-0.0165 c -15.13856,-0.0156 -16.58857,-0.0863 -18.29094,-0.889 -2.38498,-1.12452 -4.51763,-3.42529 -5.47805,-5.91021 -0.78382,-2.02797 -1.05622,-7.71529 -0.38923,-8.12682 0.20487,-0.1264 0.88087,0.0564 1.50225,0.40628 7.21664,4.06351 10.14956,4.83043 18.51848,4.83835 5.49854,0.006 7.2968,-0.16507 9.65141,-0.91605 1.59161,-0.50763 3.23124,-0.92988 3.64302,-0.9378 0.41178,-0.008 1.15221,-0.31937 1.64571,-0.69203 0.49347,-0.37264 1.18506,-0.67792 1.53693,-0.67792 0.98193,0 6.56031,-3.46946 8.89059,-5.52979 1.2345,-1.09148 2.0103,-1.76711 2.48885,-1.75743 z"
       inkscape:label="icon"
       style="opacity:1;fill:#000000;stroke-width:1"
       id="path1706" />
  </g>
</svg>
