<?xml version="1.0" encoding="UTF-8" standalone="no"?>
<svg
   xmlns:dc="http://purl.org/dc/elements/1.1/"
   xmlns:cc="http://creativecommons.org/ns#"
   xmlns:rdf="http://www.w3.org/1999/02/22-rdf-syntax-ns#"
   xmlns:svg="http://www.w3.org/2000/svg"
   xmlns="http://www.w3.org/2000/svg"
   xmlns:sodipodi="http://sodipodi.sourceforge.net/DTD/sodipodi-0.dtd"
   xmlns:inkscape="http://www.inkscape.org/namespaces/inkscape"
   inkscape:version="1.0beta2 (2b71d25, 2019-12-03)"
   sodipodi:docname="echo360.svg"
   id="svg8"
   version="1.1"
   viewBox="0 0 135.46666 135.46666"
   height="512"
   width="512">
  <defs
     id="defs2" />
  <sodipodi:namedview
     inkscape:window-maximized="0"
     inkscape:window-y="23"
     inkscape:window-x="0"
     inkscape:window-height="880"
     inkscape:window-width="1600"
     units="px"
     showgrid="false"
     inkscape:document-rotation="0"
     inkscape:current-layer="layer1"
     inkscape:document-units="mm"
     inkscape:cy="239.39931"
     inkscape:cx="287.65264"
     inkscape:zoom="1.0693832"
     inkscape:pageshadow="2"
     inkscape:pageopacity="0.0"
     borderopacity="1.0"
     bordercolor="#666666"
     pagecolor="#ffffff"
     id="base" />
  <metadata
     id="metadata5">
    <rdf:RDF>
      <cc:Work
         rdf:about="">
        <dc:format>image/svg+xml</dc:format>
        <dc:type
           rdf:resource="http://purl.org/dc/dcmitype/StillImage" />
        <dc:title></dc:title>
      </cc:Work>
    </rdf:RDF>
  </metadata>
  <g
     id="layer1"
     inkscape:groupmode="layer"
     inkscape:label="Layer 1">
    <path
       inkscape:connector-curvature="0"
       d="M 67.733332,8.5333332e-7 A 67.733335,67.733335 0 0 0 0,67.733333 67.733335,67.733335 0 0 0 67.733332,135.46667 67.733335,67.733335 0 0 0 135.46666,67.733333 67.733335,67.733335 0 0 0 67.733332,8.5333332e-7 Z M 67.733332,20.108334 A 47.625005,47.625005 0 0 1 115.35833,67.733333 47.625005,47.625005 0 0 1 67.733332,115.35833 47.625005,47.625005 0 0 1 20.108333,67.733333 47.625005,47.625005 0 0 1 67.733332,20.108334 Z"
       style="opacity:1;fill:#000000;stroke-width:0.0269875;stroke-linecap:round;stroke-linejoin:round"
       id="path1517" />
    <path
       sodipodi:nodetypes="cccc"
       inkscape:connector-curvature="0"
       id="rect840"
       d="M 84.732246,33.336179 V 102.13049 L 36.332088,67.733333 Z"
       style="opacity:1;fill:#000000;stroke-width:0.0269875;stroke-linecap:round;stroke-linejoin:round" />
  </g>
</svg>
