<?xml version="1.0" encoding="UTF-8" standalone="no"?>
<svg
   xmlns:dc="http://purl.org/dc/elements/1.1/"
   xmlns:cc="http://creativecommons.org/ns#"
   xmlns:rdf="http://www.w3.org/1999/02/22-rdf-syntax-ns#"
   xmlns:svg="http://www.w3.org/2000/svg"
   xmlns="http://www.w3.org/2000/svg"
   xmlns:sodipodi="http://sodipodi.sourceforge.net/DTD/sodipodi-0.dtd"
   xmlns:inkscape="http://www.inkscape.org/namespaces/inkscape"
   inkscape:export-ydpi="97"
   inkscape:export-xdpi="97"
   inkscape:export-filename="/Users/jonahmajumder/Code/Python/canvas/icons/open.png"
   inkscape:version="1.0beta2 (2b71d25, 2019-12-03)"
   sodipodi:docname="missed.svg"
   viewBox="0 0 506.72165 506.72165"
   height="506.72165"
   width="506.72165"
   id="svg833"
   version="1.1">
  <metadata
     id="metadata839">
    <rdf:RDF>
      <cc:Work
         rdf:about="">
        <dc:format>image/svg+xml</dc:format>
        <dc:type
           rdf:resource="http://purl.org/dc/dcmitype/StillImage" />
        <dc:title></dc:title>
      </cc:Work>
    </rdf:RDF>
  </metadata>
  <defs
     id="defs837" />
  <sodipodi:namedview
     inkscape:current-layer="g841"
     inkscape:window-maximized="0"
     inkscape:window-y="51"
     inkscape:window-x="104"
     inkscape:cy="139.80508"
     inkscape:cx="245.98854"
     inkscape:zoom="0.88063038"
     showgrid="false"
     id="namedview835"
     inkscape:window-height="910"
     inkscape:window-width="1342"
     inkscape:pageshadow="2"
     inkscape:pageopacity="0"
     guidetolerance="10"
     gridtolerance="10"
     objecttolerance="10"
     borderopacity="1"
     inkscape:document-rotation="0"
     bordercolor="#666666"
     pagecolor="#ffffff" />
  <g
     id="g841"
     inkscape:label="Image"
     inkscape:groupmode="layer">
    <path
       inkscape:connector-curvature="0"
       d="m 215.05273,38.6875 c -44.83181,-3.61e-4 -89.21217,0.139048 -114.93945,0.412109 l -25.392577,0.06641 -8.412109,2.230468 c -0.695294,0.184349 -1.382006,0.385733 -2.070313,0.585938 -0.162957,0.04294 -0.405858,0.09119 -0.552734,0.132812 -28.1038,7.9632 -51.861504,31.483286 -60.5585939,59.953126 -0.6880154,2.25221 -1.1618117,3.94519 -1.5,7.00586 l -1.13281248,4.24609 v 140.04102 140.04101 l 2.23437498,8.37696 c 9.4003354,35.26847 38.8597934,61.1123 74.4667964,65.32422 1.321456,0.15625 7.127217,0.28938 15.861329,0.40429 16.330029,0.46999 43.205719,0.529 88.173829,0.44336 54.43532,0.0847 115.45222,-0.0344 147.53906,-0.375 l 25.39063,-0.0664 8.41211,-2.23047 c 0.69806,-0.18509 1.38905,-0.38683 2.08007,-0.58789 0.15984,-0.0422 0.39867,-0.09 0.54297,-0.13086 28.1038,-7.9632 51.86346,-31.48524 60.56055,-59.95508 0.68816,-2.25269 1.1618,-3.9459 1.5,-7.00781 l 1.13086,-4.24219 V 253.31445 113.27344 l -2.23242,-8.37696 c -9.40033,-35.268465 -38.86174,-61.112294 -74.46875,-65.324214 -1.32128,-0.156239 -7.12531,-0.289397 -15.85743,-0.404297 -16.3299,-0.470034 -43.20599,-0.529001 -88.17578,-0.44336 -10.7894,-0.01678 -21.51713,-0.03702 -32.59961,-0.03711 z m -1.08007,39.505859 c 79.69497,-0.0045 121.80728,0.23329 134.85937,0.769532 0.002,8.8e-5 0.006,-8.9e-5 0.008,0 3.44976,0.252863 4.95074,0.5832 6.37891,1.017578 14.81774,4.50681 27.42393,17.142271 32.72656,32.798831 1.76265,5.20455 1.84375,11.3679 1.84375,140.53515 0,93.95759 -0.0463,122.73708 -0.74804,133.5 -0.27786,2.86126 -0.647,5.14674 -1.12696,7.12305 -5.31976,15.61645 -17.90495,28.21246 -32.69531,32.71094 -0.0727,0.0221 -0.15328,0.0409 -0.22656,0.0625 -4.32949,0.81735 -11.54031,1.26609 -25.63281,1.51562 -18.6516,0.22631 -51.96645,0.25244 -114.44922,0.25586 -79.75492,0.004 -121.878772,-0.23439 -134.896488,-0.77148 -3.425973,-0.25255 -4.926073,-0.58461 -6.34961,-1.01758 -14.817742,-4.50681 -27.42589,-17.14032 -32.728515,-32.79688 -1.762688,-5.20455 -1.841797,-11.3679 -1.841797,-140.53515 0,-94.00469 0.04526,-122.76742 0.748047,-133.51758 0.278284,-2.85998 0.650211,-5.14357 1.130859,-7.11914 5.322522,-15.609947 17.905491,-28.200132 32.691406,-32.697266 0.07267,-0.0221 0.153276,-0.04093 0.226563,-0.0625 4.32923,-0.817302 11.538102,-1.26608 25.628906,-1.515625 18.650929,-0.22633 51.966649,-0.252337 114.453129,-0.25586 z"
       style="stroke-width:1;fill:#000000;fill-opacity:1;opacity:1"
       id="path845" />
  </g>
</svg>
